<?xml version="1.0" standalone="no"?>
<!DOCTYPE svg PUBLIC "-//W3C//DTD SVG 20010904//EN"
 "http://www.w3.org/TR/2001/REC-SVG-20010904/DTD/svg10.dtd">
<svg version="1.0" xmlns="http://www.w3.org/2000/svg"
 width="512.000000pt" height="512.000000pt" viewBox="0 0 512.000000 512.000000"
 preserveAspectRatio="xMidYMid meet">
<metadata>
Created by potrace 1.14, written by Peter Selinger 2001-2017
</metadata>
<g transform="translate(0.000000,512.000000) scale(0.100000,-0.100000)"
fill="#000000" stroke="none">
<path d="M2378 5115 c-2 -1 -39 -5 -82 -9 -44 -4 -82 -8 -85 -10 -3 -2 -31 -7
-61 -11 -424 -52 -958 -306 -1299 -619 -233 -214 -397 -423 -542 -688 -32 -60
-59 -111 -59 -113 0 -2 -15 -36 -34 -77 -101 -221 -178 -512 -202 -763 -3 -33
-7 -70 -9 -83 l-4 -22 877 2 877 3 1 260 c1 257 1 261 25 298 13 20 42 46 65
57 39 19 62 20 707 20 718 0 712 0 760 -51 42 -45 44 -73 42 -769 -1 -647 -1
-666 -21 -700 -11 -19 -40 -44 -64 -57 l-44 -23 -681 2 -681 3 -37 25 c-66 45
-71 70 -72 356 l0 254 -876 0 -875 0 2 -27 c7 -97 16 -162 43 -315 36 -200
131 -468 244 -688 47 -90 195 -322 234 -365 10 -12 34 -41 53 -65 139 -180
361 -379 587 -527 97 -63 356 -203 376 -203 4 0 26 -9 50 -19 102 -47 341
-119 477 -144 55 -11 135 -23 205 -33 64 -8 443 -11 510 -4 94 11 165 20 195
26 14 2 41 7 60 10 105 17 297 73 443 129 241 91 538 268 737 441 82 70 254
248 315 324 33 41 68 84 78 94 9 11 17 23 17 27 0 4 6 14 13 21 48 48 192 304
264 468 58 130 134 372 158 499 34 182 49 340 49 516 0 108 -9 266 -18 315 -3
14 -7 43 -10 65 -37 290 -159 630 -333 925 -298 507 -801 917 -1358 1106 -209
71 -279 88 -495 120 -88 13 -511 29 -522 19z"/>
</g>
</svg>
